<mxfile host="app.diagrams.net" modified="2024-02-14T12:36:38.717Z" agent="Mozilla/5.0 (Macintosh; Intel Mac OS X 10_15_7) AppleWebKit/537.36 (KHTML, like Gecko) Chrome/120.0.0.0 Whale/3.24.223.24 Safari/537.36" etag="bQviIWSrhu71AVCWbF0A" version="23.1.4" type="github">
  <diagram name="페이지-1" id="S6nnqhIArg8jcKo-dp9Q">
    <mxGraphModel dx="1388" dy="686" grid="1" gridSize="10" guides="1" tooltips="1" connect="1" arrows="1" fold="1" page="1" pageScale="1" pageWidth="827" pageHeight="1169" math="0" shadow="0">
      <root>
        <mxCell id="0" />
        <mxCell id="1" parent="0" />
        <mxCell id="lcR5NQ9yrI0-X-0kgjGQ-1" value="Streamlit / Gradio" style="rounded=0;whiteSpace=wrap;html=1;" parent="1" vertex="1">
          <mxGeometry x="160" y="180" width="210" height="50" as="geometry" />
        </mxCell>
        <mxCell id="lcR5NQ9yrI0-X-0kgjGQ-2" value="Front" style="text;html=1;align=center;verticalAlign=middle;whiteSpace=wrap;rounded=0;" parent="1" vertex="1">
          <mxGeometry x="160" y="150" width="60" height="30" as="geometry" />
        </mxCell>
        <mxCell id="lcR5NQ9yrI0-X-0kgjGQ-4" value="&lt;b&gt;Question?&lt;/b&gt;" style="edgeStyle=orthogonalEdgeStyle;rounded=0;orthogonalLoop=1;jettySize=auto;html=1;entryX=0.5;entryY=0;entryDx=0;entryDy=0;" parent="1" source="lcR5NQ9yrI0-X-0kgjGQ-3" target="lcR5NQ9yrI0-X-0kgjGQ-1" edge="1">
          <mxGeometry relative="1" as="geometry">
            <mxPoint as="offset" />
          </mxGeometry>
        </mxCell>
        <mxCell id="lcR5NQ9yrI0-X-0kgjGQ-3" value="User" style="shape=umlActor;verticalLabelPosition=bottom;verticalAlign=top;html=1;outlineConnect=0;" parent="1" vertex="1">
          <mxGeometry x="250" y="30" width="30" height="60" as="geometry" />
        </mxCell>
        <mxCell id="lcR5NQ9yrI0-X-0kgjGQ-42" style="edgeStyle=orthogonalEdgeStyle;rounded=0;orthogonalLoop=1;jettySize=auto;html=1;exitX=0.5;exitY=1;exitDx=0;exitDy=0;fontFamily=Helvetica;fontSize=12;fontColor=default;fontStyle=1;" parent="1" source="lcR5NQ9yrI0-X-0kgjGQ-9" target="lcR5NQ9yrI0-X-0kgjGQ-17" edge="1">
          <mxGeometry relative="1" as="geometry" />
        </mxCell>
        <mxCell id="lcR5NQ9yrI0-X-0kgjGQ-9" value="&lt;p style=&quot;line-height: 100%;&quot;&gt;&lt;span style=&quot;color: rgb(0, 0, 0); font-family: Helvetica; font-size: 12px; font-style: normal; font-variant-ligatures: normal; font-variant-caps: normal; font-weight: 400; letter-spacing: normal; orphans: 2; text-align: center; text-indent: 0px; text-transform: none; widows: 2; word-spacing: 0px; -webkit-text-stroke-width: 0px; background-color: rgb(251, 251, 251); text-decoration-thickness: initial; text-decoration-style: initial; text-decoration-color: initial; float: none; display: inline !important;&quot;&gt;langchain / gemini / GPT&lt;/span&gt;&lt;/p&gt;&lt;p style=&quot;line-height: 100%;&quot;&gt;&lt;span style=&quot;color: rgb(0, 0, 0); font-family: Helvetica; font-size: 12px; font-style: normal; font-variant-ligatures: normal; font-variant-caps: normal; font-weight: 400; letter-spacing: normal; orphans: 2; text-align: center; text-indent: 0px; text-transform: none; widows: 2; word-spacing: 0px; -webkit-text-stroke-width: 0px; background-color: rgb(251, 251, 251); text-decoration-thickness: initial; text-decoration-style: initial; text-decoration-color: initial; float: none; display: inline !important;&quot;&gt;&lt;br&gt;&lt;/span&gt;&lt;/p&gt;&lt;p style=&quot;line-height: 100%;&quot;&gt;&lt;span style=&quot;color: rgb(0, 0, 0); font-family: Helvetica; font-size: 12px; font-style: normal; font-variant-ligatures: normal; font-variant-caps: normal; font-weight: 400; letter-spacing: normal; orphans: 2; text-align: center; text-indent: 0px; text-transform: none; widows: 2; word-spacing: 0px; -webkit-text-stroke-width: 0px; background-color: rgb(251, 251, 251); text-decoration-thickness: initial; text-decoration-style: initial; text-decoration-color: initial; float: none; display: inline !important;&quot;&gt;&lt;br&gt;&lt;/span&gt;&lt;/p&gt;&lt;p style=&quot;line-height: 100%;&quot;&gt;&lt;span style=&quot;color: rgb(0, 0, 0); font-family: Helvetica; font-size: 12px; font-style: normal; font-variant-ligatures: normal; font-variant-caps: normal; font-weight: 400; letter-spacing: normal; orphans: 2; text-align: center; text-indent: 0px; text-transform: none; widows: 2; word-spacing: 0px; -webkit-text-stroke-width: 0px; background-color: rgb(251, 251, 251); text-decoration-thickness: initial; text-decoration-style: initial; text-decoration-color: initial; float: none; display: inline !important;&quot;&gt;&lt;br&gt;&lt;/span&gt;&lt;/p&gt;&lt;p style=&quot;line-height: 100%;&quot;&gt;&lt;span style=&quot;color: rgb(0, 0, 0); font-family: Helvetica; font-size: 12px; font-style: normal; font-variant-ligatures: normal; font-variant-caps: normal; font-weight: 400; letter-spacing: normal; orphans: 2; text-align: center; text-indent: 0px; text-transform: none; widows: 2; word-spacing: 0px; -webkit-text-stroke-width: 0px; background-color: rgb(251, 251, 251); text-decoration-thickness: initial; text-decoration-style: initial; text-decoration-color: initial; float: none; display: inline !important;&quot;&gt;&lt;br&gt;&lt;/span&gt;&lt;/p&gt;&lt;p style=&quot;line-height: 100%;&quot;&gt;&lt;span style=&quot;color: rgb(0, 0, 0); font-family: Helvetica; font-size: 12px; font-style: normal; font-variant-ligatures: normal; font-variant-caps: normal; font-weight: 400; letter-spacing: normal; orphans: 2; text-align: center; text-indent: 0px; text-transform: none; widows: 2; word-spacing: 0px; -webkit-text-stroke-width: 0px; background-color: rgb(251, 251, 251); text-decoration-thickness: initial; text-decoration-style: initial; text-decoration-color: initial; float: none; display: inline !important;&quot;&gt;&lt;br&gt;&lt;/span&gt;&lt;/p&gt;&lt;p style=&quot;line-height: 100%;&quot;&gt;&lt;span style=&quot;color: rgb(0, 0, 0); font-family: Helvetica; font-size: 12px; font-style: normal; font-variant-ligatures: normal; font-variant-caps: normal; font-weight: 400; letter-spacing: normal; orphans: 2; text-align: center; text-indent: 0px; text-transform: none; widows: 2; word-spacing: 0px; -webkit-text-stroke-width: 0px; background-color: rgb(251, 251, 251); text-decoration-thickness: initial; text-decoration-style: initial; text-decoration-color: initial; float: none; display: inline !important;&quot;&gt;&lt;br&gt;&lt;/span&gt;&lt;/p&gt;" style="whiteSpace=wrap;html=1;fontStyle=1;aspect=fixed;" parent="1" vertex="1">
          <mxGeometry x="30" y="260" width="470" height="183.43" as="geometry" />
        </mxCell>
        <mxCell id="lcR5NQ9yrI0-X-0kgjGQ-46" value="" style="edgeStyle=orthogonalEdgeStyle;rounded=0;orthogonalLoop=1;jettySize=auto;html=1;fontFamily=Helvetica;fontSize=12;fontColor=default;fontStyle=1;" parent="1" source="lcR5NQ9yrI0-X-0kgjGQ-17" target="lcR5NQ9yrI0-X-0kgjGQ-45" edge="1">
          <mxGeometry relative="1" as="geometry" />
        </mxCell>
        <mxCell id="lcR5NQ9yrI0-X-0kgjGQ-17" value="각각에 해당하는 로직 구현.&lt;br&gt;cf) RAG -&amp;gt; embedding &amp;amp; vectorDB &amp;amp; Search" style="ellipse;shape=cloud;whiteSpace=wrap;html=1;" parent="1" vertex="1">
          <mxGeometry x="101.25" y="480" width="327.5" height="50" as="geometry" />
        </mxCell>
        <mxCell id="lcR5NQ9yrI0-X-0kgjGQ-26" value="&lt;h1&gt;Personal Chatbot&lt;/h1&gt;&lt;p&gt;RAG, Search, Copilot 등은 예시이며&lt;br style=&quot;border-color: var(--border-color);&quot;&gt;&lt;span style=&quot;&quot;&gt;원하는 챗봇을 구현하기를 권유&lt;/span&gt;&lt;br&gt;&lt;/p&gt;" style="text;html=1;spacing=5;spacingTop=-20;whiteSpace=wrap;overflow=hidden;rounded=0;fillColor=#f5f5f5;fontColor=#333333;strokeColor=none;glass=0;shadow=1;sketch=1;curveFitting=1;jiggle=2;verticalAlign=top;align=left;spacingLeft=5;" parent="1" vertex="1">
          <mxGeometry x="10" y="10" width="220" height="90" as="geometry" />
        </mxCell>
        <mxCell id="lcR5NQ9yrI0-X-0kgjGQ-11" style="edgeStyle=orthogonalEdgeStyle;rounded=0;orthogonalLoop=1;jettySize=auto;html=1;exitX=0.5;exitY=1;exitDx=0;exitDy=0;" parent="1" source="lcR5NQ9yrI0-X-0kgjGQ-1" target="lcR5NQ9yrI0-X-0kgjGQ-29" edge="1">
          <mxGeometry relative="1" as="geometry" />
        </mxCell>
        <mxCell id="lcR5NQ9yrI0-X-0kgjGQ-40" value="" style="group" parent="1" vertex="1" connectable="0">
          <mxGeometry x="92.5" y="310" width="345" height="120" as="geometry" />
        </mxCell>
        <mxCell id="lcR5NQ9yrI0-X-0kgjGQ-23" value="" style="group" parent="lcR5NQ9yrI0-X-0kgjGQ-40" vertex="1" connectable="0">
          <mxGeometry y="100" width="345" height="20" as="geometry" />
        </mxCell>
        <mxCell id="lcR5NQ9yrI0-X-0kgjGQ-12" value="RAG" style="ellipse;whiteSpace=wrap;html=1;" parent="lcR5NQ9yrI0-X-0kgjGQ-23" vertex="1">
          <mxGeometry width="80" height="20" as="geometry" />
        </mxCell>
        <mxCell id="lcR5NQ9yrI0-X-0kgjGQ-18" value="" style="group" parent="lcR5NQ9yrI0-X-0kgjGQ-23" vertex="1" connectable="0">
          <mxGeometry x="88" width="257" height="20" as="geometry" />
        </mxCell>
        <mxCell id="lcR5NQ9yrI0-X-0kgjGQ-13" value="Search" style="ellipse;whiteSpace=wrap;html=1;" parent="lcR5NQ9yrI0-X-0kgjGQ-18" vertex="1">
          <mxGeometry width="80" height="20" as="geometry" />
        </mxCell>
        <mxCell id="lcR5NQ9yrI0-X-0kgjGQ-14" value="Copilot" style="ellipse;whiteSpace=wrap;html=1;" parent="lcR5NQ9yrI0-X-0kgjGQ-18" vertex="1">
          <mxGeometry x="89" width="80" height="20" as="geometry" />
        </mxCell>
        <mxCell id="lcR5NQ9yrI0-X-0kgjGQ-16" value="image generate" style="ellipse;whiteSpace=wrap;html=1;" parent="lcR5NQ9yrI0-X-0kgjGQ-18" vertex="1">
          <mxGeometry x="177" width="80" height="20" as="geometry" />
        </mxCell>
        <mxCell id="lcR5NQ9yrI0-X-0kgjGQ-29" value="LLMRouter" style="rounded=0;whiteSpace=wrap;html=1;shape=rhombus;perimeter=rhombusPerimeter;" parent="lcR5NQ9yrI0-X-0kgjGQ-40" vertex="1">
          <mxGeometry x="85" width="175" height="50" as="geometry" />
        </mxCell>
        <mxCell id="lcR5NQ9yrI0-X-0kgjGQ-31" style="edgeStyle=orthogonalEdgeStyle;rounded=0;orthogonalLoop=1;jettySize=auto;html=1;fontFamily=Helvetica;fontSize=12;fontColor=default;fontStyle=1;" parent="lcR5NQ9yrI0-X-0kgjGQ-40" source="lcR5NQ9yrI0-X-0kgjGQ-29" target="lcR5NQ9yrI0-X-0kgjGQ-12" edge="1">
          <mxGeometry relative="1" as="geometry" />
        </mxCell>
        <mxCell id="lcR5NQ9yrI0-X-0kgjGQ-36" style="edgeStyle=orthogonalEdgeStyle;rounded=0;orthogonalLoop=1;jettySize=auto;html=1;exitX=0;exitY=1;exitDx=0;exitDy=0;entryX=0.5;entryY=0;entryDx=0;entryDy=0;fontFamily=Helvetica;fontSize=12;fontColor=default;fontStyle=1;" parent="lcR5NQ9yrI0-X-0kgjGQ-40" source="lcR5NQ9yrI0-X-0kgjGQ-29" target="lcR5NQ9yrI0-X-0kgjGQ-13" edge="1">
          <mxGeometry relative="1" as="geometry" />
        </mxCell>
        <mxCell id="lcR5NQ9yrI0-X-0kgjGQ-38" style="edgeStyle=orthogonalEdgeStyle;rounded=0;orthogonalLoop=1;jettySize=auto;html=1;exitX=1;exitY=1;exitDx=0;exitDy=0;entryX=0.5;entryY=0;entryDx=0;entryDy=0;fontFamily=Helvetica;fontSize=12;fontColor=default;fontStyle=1;" parent="lcR5NQ9yrI0-X-0kgjGQ-40" source="lcR5NQ9yrI0-X-0kgjGQ-29" target="lcR5NQ9yrI0-X-0kgjGQ-14" edge="1">
          <mxGeometry relative="1" as="geometry" />
        </mxCell>
        <mxCell id="lcR5NQ9yrI0-X-0kgjGQ-39" style="edgeStyle=orthogonalEdgeStyle;rounded=0;orthogonalLoop=1;jettySize=auto;html=1;exitX=1;exitY=0.5;exitDx=0;exitDy=0;entryX=0.5;entryY=0;entryDx=0;entryDy=0;fontFamily=Helvetica;fontSize=12;fontColor=default;fontStyle=1;" parent="lcR5NQ9yrI0-X-0kgjGQ-40" source="lcR5NQ9yrI0-X-0kgjGQ-29" target="lcR5NQ9yrI0-X-0kgjGQ-16" edge="1">
          <mxGeometry relative="1" as="geometry" />
        </mxCell>
        <mxCell id="lcR5NQ9yrI0-X-0kgjGQ-48" style="edgeStyle=orthogonalEdgeStyle;rounded=0;orthogonalLoop=1;jettySize=auto;html=1;exitX=1;exitY=0.5;exitDx=0;exitDy=0;entryX=1;entryY=0.5;entryDx=0;entryDy=0;fontFamily=Helvetica;fontSize=12;fontColor=default;fontStyle=1;" parent="1" source="lcR5NQ9yrI0-X-0kgjGQ-45" target="lcR5NQ9yrI0-X-0kgjGQ-1" edge="1">
          <mxGeometry relative="1" as="geometry">
            <Array as="points">
              <mxPoint x="590" y="585" />
              <mxPoint x="590" y="205" />
            </Array>
          </mxGeometry>
        </mxCell>
        <mxCell id="lcR5NQ9yrI0-X-0kgjGQ-49" value="Response" style="edgeLabel;html=1;align=center;verticalAlign=middle;resizable=0;points=[];strokeColor=default;fontFamily=Helvetica;fontSize=11;fontColor=default;fontStyle=1;fillColor=default;" parent="lcR5NQ9yrI0-X-0kgjGQ-48" vertex="1" connectable="0">
          <mxGeometry x="0.0029" y="-3" relative="1" as="geometry">
            <mxPoint y="1" as="offset" />
          </mxGeometry>
        </mxCell>
        <mxCell id="lcR5NQ9yrI0-X-0kgjGQ-45" value="Result" style="rounded=1;whiteSpace=wrap;html=1;" parent="1" vertex="1">
          <mxGeometry x="205" y="567" width="120" height="35" as="geometry" />
        </mxCell>
      </root>
    </mxGraphModel>
  </diagram>
</mxfile>
